<svg width="16px" height="16px" viewBox="0 0 16 16" version="1.1" xmlns="http://www.w3.org/2000/svg" xmlns:xlink="http://www.w3.org/1999/xlink">
    <g stroke="none" stroke-width="1" fill="none" fill-rule="evenodd">
        <g transform="translate(-1139.000000, -82.000000)" fill="#FFFFFF" fill-rule="nonzero">
            <g transform="translate(1128.000000, 71.000000)">
                <path id="add-icon-white"  d="M25.9743712,17.9083344 L20.0916294,17.9083344 L20.0916294,12.0255368 C20.0916294,11.7575513 19.7277317,11.1764706 18.9999682,11.1764706 C18.2722047,11.1764706 17.908307,11.7575831 17.908307,12.0255368 L17.908307,17.9083662 L12.0255333,17.9083662 C11.7575807,17.9083344 11.1764706,18.2722335 11.1764706,18.9999682 C11.1764706,19.7277029 11.7575807,20.0916338 12.0255333,20.0916338 L17.9083388,20.0916338 L17.9083388,25.9744632 C17.9083388,26.2423851 18.2722047,26.8235294 19,26.8235294 C19.7277953,26.8235294 20.0916612,26.2423851 20.0916612,25.9744632 L20.0916612,20.0916338 L25.9744667,20.0916338 C26.2423875,20.0916338 26.8235294,19.7277665 26.8235294,18.9999682 C26.8235294,18.2721699 26.2423239,17.9083344 25.9743712,17.9083344 Z"></path>
            </g>
        </g>
    </g>
</svg>