<svg width="4px" height="15px" viewBox="0 0 4 15" version="1.1" xmlns="http://www.w3.org/2000/svg" xmlns:xlink="http://www.w3.org/1999/xlink">
    <g stroke="none" stroke-width="1" fill="none" fill-rule="evenodd">
        <g transform="translate(-793.000000, -179.000000)" fill="#233B30" fill-rule="nonzero">
            <g transform="translate(510.000000, 159.000000)">
                <g transform="translate(19.000000, 20.000000)">
                    <path d="M265.675532,3.35106383 C264.750161,3.35106383 264,2.60090264 264,1.67553191 C264,0.75016119 264.750161,0 265.675532,0 C266.600903,0 267.351064,0.75016119 267.351064,1.67553191 C267.351064,2.60090264 266.600903,3.35106383 265.675532,3.35106383 Z M265.675532,9.25531915 C264.750161,9.25531915 264,8.50515796 264,7.57978723 C264,6.65441651 264.750161,5.90425532 265.675532,5.90425532 C266.600903,5.90425532 267.351064,6.65441651 267.351064,7.57978723 C267.351064,8.50515796 266.600903,9.25531915 265.675532,9.25531915 Z M265.675532,15 C264.750161,15 264,14.2498388 264,13.3244681 C264,12.3990974 264.750161,11.6489362 265.675532,11.6489362 C266.600903,11.6489362 267.351064,12.3990974 267.351064,13.3244681 C267.351064,14.2498388 266.600903,15 265.675532,15 Z" id="more-icon"></path>
                </g>
            </g>
        </g>
    </g>
</svg>