<?xml version="1.0" encoding="UTF-8"?>
<svg width="14px" height="15px" viewBox="0 0 14 15" version="1.1" xmlns="http://www.w3.org/2000/svg" xmlns:xlink="http://www.w3.org/1999/xlink">
    <!-- Generator: Sketch 49.3 (51167) - http://www.bohemiancoding.com/sketch -->
    <title>report-icon</title>
    <desc>Created with Sketch.</desc>
    <defs></defs>
    <g id="Page-1" stroke="none" stroke-width="1" fill="none" fill-rule="evenodd">
        <g id="My-Plants" transform="translate(-857.000000, -60.000000)">
            <g id="navbar" transform="translate(409.000000, 60.000000)">
                <g id="report-btn" transform="translate(448.000000, 0.000000)">
                    <g id="report-icon">
                        <path d="M6,0 L8,0 C8.55228475,-1.01453063e-16 9,0.44771525 9,1 L9,15 L5,15 L5,1 C5,0.44771525 5.44771525,1.01453063e-16 6,0 Z M11,9 L13,9 C13.5522847,9 14,9.44771525 14,10 L14,15 L10,15 L10,10 C10,9.44771525 10.4477153,9 11,9 Z" id="report-2" fill="#777B79"></path>
                        <path d="M0.5,14.5 L3.5,14.5 L3.5,6 C3.5,5.72385763 3.27614237,5.5 3,5.5 L1,5.5 C0.723857625,5.5 0.5,5.72385763 0.5,6 L0.5,14.5 Z" id="report-1" stroke="#777B79"></path>
                    </g>
                </g>
            </g>
        </g>
    </g>
</svg>