<?xml version="1.0" encoding="UTF-8"?>
<svg width="30px" height="35px" viewBox="0 0 30 35" version="1.1" xmlns="http://www.w3.org/2000/svg" xmlns:xlink="http://www.w3.org/1999/xlink">
    <!-- Generator: Sketch 49.3 (51167) - http://www.bohemiancoding.com/sketch -->
    <title>name-icon</title>
    <desc>Created with Sketch.</desc>
    <defs></defs>
    <g id="Page-1" stroke="none" stroke-width="1" fill="none" fill-rule="evenodd">
        <g id="Sign-Up" transform="translate(-146.000000, -544.000000)" fill="#34C197" fill-rule="nonzero">
            <g id="name" transform="translate(120.000000, 519.000000)">
                <g id="name-icon" transform="translate(26.000000, 25.000000)">
                    <path d="M14.7608696,18.8550725 C14.7971014,18.8550725 14.8333333,18.8550725 14.8768116,18.8550725 C14.8913043,18.8550725 14.9057971,18.8550725 14.9202899,18.8550725 C14.942029,18.8550725 14.9710145,18.8550725 14.9927536,18.8550725 C17.115942,18.8188406 18.8333333,18.0724638 20.1014493,16.6449275 C22.8913043,13.5 22.4275362,8.10869565 22.3768116,7.5942029 C22.1956522,3.73188406 20.3695652,1.88405797 18.8623188,1.02173913 C17.7391304,0.376811594 16.4275362,0.0289855072 14.9637681,0 L14.9130435,0 C14.9057971,0 14.8913043,0 14.884058,0 L14.8405797,0 C14.0362319,0 12.4565217,0.130434783 10.942029,0.992753623 C9.42028986,1.85507246 7.56521739,3.70289855 7.38405797,7.5942029 C7.33333333,8.10869565 6.86956522,13.5 9.65942029,16.6449275 C10.9202899,18.0724638 12.6376812,18.8188406 14.7608696,18.8550725 Z M9.31884058,7.77536232 C9.31884058,7.75362319 9.32608696,7.73188406 9.32608696,7.7173913 C9.56521739,2.52173913 13.2536232,1.96376812 14.8333333,1.96376812 L14.8623188,1.96376812 C14.8768116,1.96376812 14.8985507,1.96376812 14.9202899,1.96376812 C16.8768116,2.00724638 20.2028986,2.80434783 20.4275362,7.7173913 C20.4275362,7.73913043 20.4275362,7.76086957 20.4347826,7.77536232 C20.442029,7.82608696 20.9492754,12.7536232 18.6449275,15.3478261 C17.7318841,16.3768116 16.5144928,16.884058 14.9130435,16.8985507 C14.8985507,16.8985507 14.8913043,16.8985507 14.8768116,16.8985507 C14.8623188,16.8985507 14.8550725,16.8985507 14.8405797,16.8985507 C13.2463768,16.884058 12.0217391,16.3768116 11.115942,15.3478261 C8.81884058,12.7681159 9.3115942,7.81884058 9.31884058,7.77536232 Z" id="name-sh1"></path>
                    <path d="M29.7681159,27.7971014 C29.7681159,27.7898551 29.7681159,27.7826087 29.7681159,27.7753623 C29.7681159,27.7173913 29.7608696,27.6594203 29.7608696,27.5942029 C29.7173913,26.1594203 29.6231884,22.8043478 26.4782609,21.7318841 C26.4565217,21.7246377 26.4275362,21.7173913 26.4057971,21.7101449 C23.1376812,20.8768116 20.4202899,18.9927536 20.3913043,18.9710145 C19.9492754,18.6594203 19.3405797,18.7681159 19.0289855,19.2101449 C18.7173913,19.6521739 18.826087,20.2608696 19.2681159,20.5724638 C19.3913043,20.6594203 22.2753623,22.6666667 25.884058,23.5942029 C27.5724638,24.1956522 27.7608696,26 27.8115942,27.6521739 C27.8115942,27.7173913 27.8115942,27.7753623 27.8188406,27.8333333 C27.826087,28.4855072 27.7826087,29.4927536 27.6666667,30.0724638 C26.4927536,30.7391304 21.8913043,33.0434783 14.8913043,33.0434783 C7.92028986,33.0434783 3.28985507,30.7318841 2.10869565,30.0652174 C1.99275362,29.4855072 1.94202899,28.4782609 1.95652174,27.826087 C1.95652174,27.7681159 1.96376812,27.7101449 1.96376812,27.6449275 C2.01449275,25.9927536 2.20289855,24.1884058 3.89130435,23.5869565 C7.5,22.6594203 10.384058,20.6449275 10.5072464,20.5652174 C10.9492754,20.2536232 11.057971,19.6449275 10.7463768,19.2028986 C10.4347826,18.7608696 9.82608696,18.6521739 9.38405797,18.9637681 C9.35507246,18.9855072 6.65217391,20.8695652 3.36956522,21.7028986 C3.34057971,21.7101449 3.31884058,21.7173913 3.29710145,21.7246377 C0.152173913,22.8043478 0.0579710145,26.1594203 0.0144927536,27.5869565 C0.0144927536,27.6521739 0.0144927536,27.7101449 0.00724637681,27.7681159 C0.00724637681,27.7753623 0.00724637681,27.7826087 0.00724637681,27.7898551 C2.28983499e-16,28.1666667 -0.00724637681,30.1014493 0.376811594,31.0724638 C0.449275362,31.2608696 0.579710145,31.4202899 0.753623188,31.5289855 C0.971014493,31.673913 6.18115942,34.9927536 14.8985507,34.9927536 C23.615942,34.9927536 28.826087,31.6666667 29.0434783,31.5289855 C29.2101449,31.4202899 29.3478261,31.2608696 29.4202899,31.0724638 C29.7826087,30.1086957 29.7753623,28.173913 29.7681159,27.7971014 Z" id="name-sh2"></path>
                </g>
            </g>
        </g>
    </g>
</svg>