<?xml version="1.0" encoding="UTF-8"?>
<svg width="126px" height="72px" viewBox="0 0 126 72" version="1.1" xmlns="http://www.w3.org/2000/svg" xmlns:xlink="http://www.w3.org/1999/xlink">
    <!-- Generator: Sketch 49.3 (51167) - http://www.bohemiancoding.com/sketch -->
    <title>facebook-btn</title>
    <desc>Created with Sketch.</desc>
    <defs></defs>
    <g id="Page-1" stroke="none" stroke-width="1" fill="none" fill-rule="evenodd">
        <g id="Log-In" transform="translate(-137.000000, -1093.000000)">
            <g id="facebook-btn" transform="translate(137.000000, 1093.000000)">
                <rect id="facebook-bg" fill="#4468B0" x="0" y="0" width="126" height="72" rx="36"></rect>
                <path d="M70.4748926,20.7065541 L66.3686874,20.7 C61.7555066,20.7 58.7742666,23.7427421 58.7742666,28.4521925 L58.7742666,32.0264723 L54.6456608,32.0264723 C54.2889003,32.0264723 54,32.3141974 54,32.6691021 L54,37.8478262 C54,38.2027309 54.2892297,38.4901283 54.6456608,38.4901283 L58.7742666,38.4901283 L58.7742666,51.5576979 C58.7742666,51.9126026 59.0631668,52.2 59.4199274,52.2 L64.8065835,52.2 C65.163344,52.2 65.4522443,51.9122749 65.4522443,51.5576979 L65.4522443,38.4901283 L70.2795473,38.4901283 C70.6363078,38.4901283 70.9252081,38.2027309 70.9252081,37.8478262 L70.9271846,32.6691021 C70.9271846,32.4986954 70.858995,32.3354983 70.7380983,32.2149028 C70.6172016,32.0943073 70.4524922,32.0264723 70.2811944,32.0264723 L65.4522443,32.0264723 L65.4522443,28.9965107 C65.4522443,27.5401891 65.8010988,26.8008864 67.7081042,26.8008864 L70.4742338,26.7999032 C70.8306649,26.7999032 71.1195652,26.5121781 71.1195652,26.1576012 L71.1195652,21.3488562 C71.1195652,20.9946069 70.8309944,20.7072095 70.4748926,20.7065541 Z" id="facebook-icon" fill="#FFFFFF" fill-rule="nonzero"></path>
            </g>
        </g>
    </g>
</svg>