<svg width="11px" height="15px" viewBox="0 0 11 15" version="1.1" xmlns="http://www.w3.org/2000/svg" xmlns:xlink="http://www.w3.org/1999/xlink">
    <g stroke="none" stroke-width="1" fill="none" fill-rule="evenodd">
        <g transform="translate(-742.000000, -60.000000)" fill="#777B79" fill-rule="nonzero">
            <g transform="translate(409.000000, 60.000000)">
                <g transform="translate(333.000000, 0.000000)">
                    <g>
                        <path id="moderator-2" class="icon" d="M3.68673913,9.08445652 C4.22608696,9.48423913 4.84826087,9.72456522 5.52326087,9.7248913 C6.19858696,9.7248913 6.82141304,9.48423913 7.36076087,9.08413043 L7.36076087,10.5583696 C7.36076087,11.0413043 6.96945652,11.4322826 6.48717391,11.4322826 L4.56032609,11.4322826 C4.07771739,11.4322826 3.68673913,11.0409783 3.68673913,10.5583696 L3.68673913,9.08445652 Z M8.42119565,8.93315217 C9.92021739,9.30847826 10.9715217,10.6552174 10.9721739,12.2008696 L10.9721739,14.2294565 C10.9721739,14.628913 10.6483696,14.9605435 10.2492391,14.9605435 L8.83402174,14.9605435 L8.83402174,11.8425 C8.83402174,11.6155435 8.6501087,11.4322826 8.42380435,11.4322826 L8.42119565,8.93315217 Z M0.075326087,12.2005435 C0.075326087,10.6552174 1.12663043,9.30847826 2.62565217,8.93282609 L2.62532609,11.4319565 C2.3973913,11.4319565 2.21315217,11.6165217 2.21315217,11.8441304 L2.21315217,14.9602174 L0.79826087,14.9602174 C0.399130435,14.9602174 0.075326087,14.628913 0.075326087,14.2291304 L0.075326087,12.2005435 Z"></path>
                        <path id="moderator-1" class="icon" d="M9.3273913,5.60967391 C9.38445652,4.91478261 9.16173913,4.61967391 8.87152174,4.49771739 C8.86728261,4.38391304 8.91554348,3.915 8.91554348,3.78554348 C8.91554348,2.20630435 7.44358696,0.696847826 6.0825,0.3675 C6.09097826,0.346304348 6.09554348,0.324130435 6.09554348,0.300978261 C6.09554348,0.134673913 5.85423913,-1.77635684e-15 5.55521739,-1.77635684e-15 C5.25652174,-1.77635684e-15 5.01456522,0.135 5.01456522,0.300978261 C5.01456522,0.327391304 5.02076087,0.352826087 5.03184783,0.376956522 C3.75456522,0.725217391 2.19554348,2.22097826 2.19554348,3.78521739 C2.19554348,3.88076087 2.20141304,3.97565217 2.2098913,4.06891304 C2.19684783,4.21141304 2.18771739,4.36076087 2.18184783,4.51695652 C1.91315217,4.65 1.71456522,4.94934783 1.76869565,5.60967391 C1.82641304,6.30326087 2.16652174,6.6273913 2.5425,6.72228261 C3.08706522,8.10032609 4.18891304,9.22173913 5.52717391,9.22173913 C6.86152174,9.22173913 7.96206522,8.10586957 8.50728261,6.73304348 C8.90184783,6.65315217 9.2673913,6.33195652 9.3273913,5.60967391 Z M5.52684783,8.55163043 C4.04152174,8.55163043 2.84543478,6.53021739 2.84543478,4.85673913 C2.84543478,4.7475 2.84771739,4.6425 2.85130435,4.54076087 L3.285,4.96695652 C3.4751087,5.15380435 3.77380435,5.16880435 3.9825,5.00282609 C4.30695652,4.74456522 4.88967391,4.5701087 5.5548913,4.5701087 C6.2201087,4.5701087 6.80282609,4.74456522 7.12728261,5.00282609 C7.33532609,5.16847826 7.63467391,5.15347826 7.82445652,4.96728261 L8.20467391,4.59423913 C8.20663043,4.67934783 8.20793478,4.76673913 8.20793478,4.85673913 C8.2076087,6.53021739 7.01152174,8.55163043 5.52684783,8.55163043 Z"></path>
                    </g>
                </g>
            </g>
        </g>
    </g>
</svg>