<?xml version="1.0" encoding="UTF-8"?>
<svg width="126px" height="72px" viewBox="0 0 126 72" version="1.1" xmlns="http://www.w3.org/2000/svg" xmlns:xlink="http://www.w3.org/1999/xlink">
    <!-- Generator: Sketch 49.3 (51167) - http://www.bohemiancoding.com/sketch -->
    <title>google-btn</title>
    <desc>Created with Sketch.</desc>
    <defs></defs>
    <g id="Page-1" stroke="none" stroke-width="1" fill="none" fill-rule="evenodd">
        <g id="Log-In" transform="translate(-457.000000, -1093.000000)">
            <g id="google-btn" transform="translate(457.000000, 1093.000000)">
                <rect id="google-bg" fill="#D54B3D" x="0" y="0" width="126" height="72" rx="36"></rect>
                <g id="google-icon" transform="translate(47.700000, 26.100000)" fill="#FFFFFF" fill-rule="nonzero">
                    <path d="M11.0337157,12.1723137 L15.9470294,12.1723137 C15.0845882,14.6106471 12.7487843,16.3588627 10.0141863,16.3386863 C6.69611765,16.3141863 3.95252941,13.6598137 3.82371569,10.3441471 C3.68563725,6.79 6.53703922,3.85452941 10.0610588,3.85452941 C11.6723627,3.85452941 13.1427745,4.46847059 14.2513137,5.47448039 C14.5138824,5.71282353 14.9135686,5.71433333 15.1718137,5.4712549 L16.9764412,3.77279412 C17.2586373,3.50713725 17.2596667,3.05851961 16.9782941,2.79197059 C15.2202647,1.12645098 12.861951,0.0883235294 10.2613137,0.0375392157 C4.71443137,-0.070754902 0.0389117647,4.47711765 0.000274509804,10.0249608 C-0.0387058824,15.6144608 4.48061765,20.1577353 10.0610588,20.1577353 C15.4276569,20.1577353 19.8117157,15.9557451 20.1053725,10.6625784 C20.1131961,10.5962157 20.1183431,8.35340196 20.1183431,8.35340196 L11.0337157,8.35340196 C10.6613431,8.35340196 10.3595196,8.65522549 10.3595196,9.02759804 L10.3595196,11.4981176 C10.3595196,11.8704902 10.6614118,12.1723137 11.0337157,12.1723137 Z" id="Shape"></path>
                    <path d="M28.4436078,8.5777451 L28.4436078,6.16391176 C28.4436078,5.83758824 28.1791176,5.57309804 27.8527941,5.57309804 L25.8211471,5.57309804 C25.4948235,5.57309804 25.2303333,5.83758824 25.2303333,6.16391176 L25.2303333,8.5777451 L22.8165,8.5777451 C22.4901765,8.5777451 22.2256863,8.84223529 22.2256863,9.16855882 L22.2256863,11.2002059 C22.2256863,11.5265294 22.4901765,11.7910196 22.8165,11.7910196 L25.2303333,11.7910196 L25.2303333,14.2048529 C25.2303333,14.5311765 25.4948235,14.7956667 25.8211471,14.7956667 L27.8527941,14.7956667 C28.1791176,14.7956667 28.4436078,14.5311765 28.4436078,14.2048529 L28.4436078,11.7910196 L30.8574412,11.7910196 C31.1837647,11.7910196 31.4482549,11.5265294 31.4482549,11.2002059 L31.4482549,9.16855882 C31.4482549,8.84223529 31.1837647,8.5777451 30.8574412,8.5777451 L28.4436078,8.5777451 Z" id="Shape"></path>
                </g>
            </g>
        </g>
    </g>
</svg>