<?xml version="1.0" encoding="UTF-8"?>
<svg width="16px" height="11px" viewBox="0 0 16 11" version="1.1" xmlns="http://www.w3.org/2000/svg" xmlns:xlink="http://www.w3.org/1999/xlink">
    <!-- Generator: Sketch 49.3 (51167) - http://www.bohemiancoding.com/sketch -->
    <title>google-icon</title>
    <desc>Created with Sketch.</desc>
    <defs></defs>
    <g id="Page-1" stroke="none" stroke-width="1" fill="none" fill-rule="evenodd">
        <g id="Log-In" transform="translate(-405.000000, -543.000000)" fill="#FFFFFF" fill-rule="nonzero">
            <g id="Login-panel" transform="translate(150.000000, 110.000000)">
                <g id="social" transform="translate(90.000000, 422.000000)">
                    <g id="google-btn" transform="translate(144.600000, 0.500000)">
                        <g id="google-icon" transform="translate(21.000000, 11.000000)">
                            <path d="M5.25415033,5.79633987 L7.59382353,5.79633987 C7.18313725,6.95745098 6.07084967,7.78993464 4.76866013,7.7803268 C3.18862745,7.76866013 1.88215686,6.5046732 1.82081699,4.92578431 C1.75506536,3.23333333 3.11287582,1.8354902 4.79098039,1.8354902 C5.55826797,1.8354902 6.25846405,2.12784314 6.78633987,2.60689542 C6.91137255,2.72039216 7.10169935,2.72111111 7.2246732,2.60535948 L8.08401961,1.79656863 C8.21839869,1.67006536 8.21888889,1.45643791 8.08490196,1.3295098 C7.2477451,0.536405229 6.12473856,0.0420588235 4.88633987,0.017875817 C2.24496732,-0.0336928105 0.0185294118,2.13196078 0.000130718954,4.77379085 C-0.0184313725,7.43545752 2.13362745,9.59892157 4.79098039,9.59892157 C7.34650327,9.59892157 9.43415033,7.59797386 9.57398693,5.0774183 C9.57771242,5.04581699 9.5801634,3.97781046 9.5801634,3.97781046 L5.25415033,3.97781046 C5.07683007,3.97781046 4.93310458,4.12153595 4.93310458,4.29885621 L4.93310458,5.47529412 C4.93310458,5.65261438 5.07686275,5.79633987 5.25415033,5.79633987 Z" id="Shape"></path>
                            <path d="M13.5445752,4.08464052 L13.5445752,2.93519608 C13.5445752,2.77980392 13.4186275,2.65385621 13.2632353,2.65385621 L12.2957843,2.65385621 C12.1403922,2.65385621 12.0144444,2.77980392 12.0144444,2.93519608 L12.0144444,4.08464052 L10.865,4.08464052 C10.7096078,4.08464052 10.5836601,4.21058824 10.5836601,4.36598039 L10.5836601,5.33343137 C10.5836601,5.48882353 10.7096078,5.61477124 10.865,5.61477124 L12.0144444,5.61477124 L12.0144444,6.76421569 C12.0144444,6.91960784 12.1403922,7.04555556 12.2957843,7.04555556 L13.2632353,7.04555556 C13.4186275,7.04555556 13.5445752,6.91960784 13.5445752,6.76421569 L13.5445752,5.61477124 L14.6940196,5.61477124 C14.8494118,5.61477124 14.9753595,5.48882353 14.9753595,5.33343137 L14.9753595,4.36598039 C14.9753595,4.21058824 14.8494118,4.08464052 14.6940196,4.08464052 L13.5445752,4.08464052 Z" id="Shape"></path>
                        </g>
                    </g>
                </g>
            </g>
        </g>
    </g>
</svg>