<?xml version="1.0" encoding="UTF-8"?>
<svg width="30px" height="30px" viewBox="0 0 30 30" version="1.1" xmlns="http://www.w3.org/2000/svg" xmlns:xlink="http://www.w3.org/1999/xlink">
    <!-- Generator: Sketch 49.3 (51167) - http://www.bohemiancoding.com/sketch -->
    <title>password-icon</title>
    <desc>Created with Sketch.</desc>
    <defs></defs>
    <g id="Page-1" stroke="none" stroke-width="1" fill="none" fill-rule="evenodd">
        <g id="Log-In" transform="translate(-146.000000, -657.000000)" fill="#34C197" fill-rule="nonzero">
            <g id="password" transform="translate(120.000000, 629.000000)">
                <path d="M47.2067672,28 C42.3581466,28 38.4136638,31.9444828 38.4136638,36.7931034 C38.4136638,38.4456897 38.8802155,39.987069 39.67625,41.3091379 L26.3029741,54.6824138 C25.8990086,55.0863793 25.8990086,55.7412069 26.3029741,56.1451724 C26.5052155,56.3474138 26.7695259,56.4482759 27.0343534,56.4482759 C27.299181,56.4482759 27.5634914,56.3474138 27.7657328,56.1451724 L29.6205603,54.2903448 L33.0271121,57.6968966 C33.2293534,57.8991379 33.4936638,58 33.7584914,58 C34.023319,58 34.2876293,57.8991379 34.4898707,57.6968966 C34.8938362,57.292931 34.8938362,56.6381034 34.4898707,56.2341379 L31.083319,52.8275862 L32.2067672,51.7041379 L34.5788362,54.0762069 C34.7810776,54.2784483 35.0453879,54.3793103 35.3102155,54.3793103 C35.5750431,54.3793103 35.8393534,54.2784483 36.0415948,54.0762069 C36.4455603,53.6722414 36.4455603,53.0174138 36.0415948,52.6134483 L33.6695259,50.2413793 L34.7929741,49.117931 L38.1995259,52.5244828 C38.4017672,52.7267241 38.6660776,52.8275862 38.9309052,52.8275862 C39.1957328,52.8275862 39.4600431,52.7267241 39.6622845,52.5244828 C40.06625,52.1205172 40.06625,51.4656897 39.6622845,51.0617241 L36.2557328,47.6551724 L40.9496983,42.9612069 C42.5453879,44.5796552 44.7596983,45.5862069 47.2067672,45.5862069 C52.0553879,45.5862069 55.9998707,41.6417241 55.9998707,36.7931034 C55.9998707,31.9444828 52.0553879,28 47.2067672,28 Z M47.2067672,43.5172414 C43.499181,43.5172414 40.4826293,40.5006897 40.4826293,36.7931034 C40.4826293,33.0855172 43.499181,30.0689655 47.2067672,30.0689655 C50.9143534,30.0689655 53.9309052,33.0855172 53.9309052,36.7931034 C53.9309052,40.5006897 50.9143534,43.5172414 47.2067672,43.5172414 Z" id="password-icon"></path>
            </g>
        </g>
    </g>
</svg>