<?xml version="1.0" encoding="UTF-8"?>
<svg width="15px" height="15px" viewBox="0 0 15 15" version="1.1" xmlns="http://www.w3.org/2000/svg" xmlns:xlink="http://www.w3.org/1999/xlink">
    <!-- Generator: Sketch 49.3 (51167) - http://www.bohemiancoding.com/sketch -->
    <title>magnifying-glass</title>
    <desc>Created with Sketch.</desc>
    <defs></defs>
    <g id="Page-1" stroke="none" stroke-width="1" fill="none" fill-rule="evenodd">
        <g id="My-Plants---notificartions" transform="translate(-143.000000, -15.000000)" fill="#777B79" fill-rule="nonzero">
            <path d="M157.816327,28.9346939 L154.210204,25.3285714 C155.104082,24.2387755 155.642857,22.8428571 155.642857,21.3214286 C155.642857,17.8316327 152.811224,15 149.321429,15 C145.828571,15 143,17.8316327 143,21.3214286 C143,24.8112245 145.828571,27.6428571 149.321429,27.6428571 C150.842857,27.6428571 152.235714,27.1071429 153.32551,26.2132653 L156.931633,29.8163265 C157.176531,30.0612245 157.571429,30.0612245 157.816327,29.8163265 C158.061224,29.5744898 158.061224,29.1765306 157.816327,28.9346939 Z M149.321429,26.3846939 C146.526531,26.3846939 144.255102,24.1132653 144.255102,21.3214286 C144.255102,18.5295918 146.526531,16.255102 149.321429,16.255102 C152.113265,16.255102 154.387755,18.5295918 154.387755,21.3214286 C154.387755,24.1132653 152.113265,26.3846939 149.321429,26.3846939 Z" id="magnifying-glass"></path>
        </g>
    </g>
</svg>