<?xml version="1.0" encoding="UTF-8"?>
<svg width="9px" height="16px" viewBox="0 0 9 16" version="1.1" xmlns="http://www.w3.org/2000/svg" xmlns:xlink="http://www.w3.org/1999/xlink">
    <!-- Generator: Sketch 49.3 (51167) - http://www.bohemiancoding.com/sketch -->
    <title>facebook-icon</title>
    <desc>Created with Sketch.</desc>
    <defs></defs>
    <g id="Page-1" stroke="none" stroke-width="1" fill="none" fill-rule="evenodd">
        <g id="Log-In" transform="translate(-264.000000, -541.000000)" fill="#FFFFFF" fill-rule="nonzero">
            <g id="Login-panel" transform="translate(150.000000, 110.000000)">
                <g id="social" transform="translate(90.000000, 422.000000)">
                    <g id="facebook-btn" transform="translate(0.600000, 0.500000)">
                        <path d="M31.845187,9.003121 L29.8898511,9 C27.6930984,9 26.2734603,10.4489248 26.2734603,12.6915202 L26.2734603,14.3935583 L24.3074575,14.3935583 C24.1375716,14.3935583 24,14.5305702 24,14.6995724 L24,17.1656315 C24,17.3346338 24.1377284,17.4714897 24.3074575,17.4714897 L26.2734603,17.4714897 L26.2734603,23.6941419 C26.2734603,23.8631441 26.4110318,24 26.5809178,24 L29.1459921,24 C29.3158781,24 29.4534497,23.862988 29.4534497,23.6941419 L29.4534497,17.4714897 L31.7521654,17.4714897 C31.9220514,17.4714897 32.0596229,17.3346338 32.0596229,17.1656315 L32.0605641,14.6995724 C32.0605641,14.6184264 32.0280928,14.5407135 31.970523,14.483287 C31.9129531,14.4258606 31.8345201,14.3935583 31.7529497,14.3935583 L29.4534497,14.3935583 L29.4534497,12.9507194 C29.4534497,12.2572329 29.6195709,11.905184 30.5276687,11.905184 L31.8448732,11.9047158 C32.0146024,11.9047158 32.1521739,11.7677039 32.1521739,11.5988577 L32.1521739,9.30897912 C32.1521739,9.140289 32.0147592,9.0034331 31.845187,9.003121 Z" id="facebook-icon"></path>
                    </g>
                </g>
            </g>
        </g>
    </g>
</svg>