<?xml version="1.0" encoding="UTF-8"?>
<svg width="15px" height="15px" viewBox="0 0 15 15" version="1.1" xmlns="http://www.w3.org/2000/svg" xmlns:xlink="http://www.w3.org/1999/xlink">
    <!-- Generator: Sketch 49.3 (51167) - http://www.bohemiancoding.com/sketch -->
    <title>calendar-icon</title>
    <desc>Created with Sketch.</desc>
    <defs></defs>
    <g id="Page-1" stroke="none" stroke-width="1" fill="none" fill-rule="evenodd">
        <g id="My-Plants" transform="translate(-637.000000, -60.000000)" fill="#777B79" fill-rule="nonzero">
            <g id="navbar" transform="translate(409.000000, 60.000000)">
                <g id="calendar-btn" transform="translate(228.000000, 0.000000)">
                    <g id="calendar-icon">
                        <path d="M5.25,8.27765755 L5.25,9.42204644 C5.25,9.60329562 5.10320377,9.75 4.92207616,9.75 L3.77774626,9.75 C3.59682583,9.75 3.45,9.60329562 3.45,9.42204644 L3.45,8.27765755 C3.45,8.09664518 3.59682583,7.95 3.77774626,7.95 L4.92207616,7.95 C5.10320377,7.95 5.25,8.09664518 5.25,8.27765755 Z M8.25,8.27765755 L8.25,9.42204644 C8.25,9.60329562 8.10315969,9.75 7.92236939,9.75 L6.7777786,9.75 C6.59684031,9.75 6.45,9.60329562 6.45,9.42204644 L6.45,8.27765755 C6.45,8.09664518 6.59684031,7.95 6.7777786,7.95 L7.92236939,7.95 C8.10315969,7.95 8.25,8.09664518 8.25,8.27765755 Z M11.25,8.27765755 L11.25,9.42204644 C11.25,9.60329562 11.1031742,9.75 10.9222537,9.75 L9.77792384,9.75 C9.59679623,9.75 9.45,9.60329562 9.45,9.42204644 L9.45,8.27765755 C9.45,8.09664518 9.59679623,7.95 9.77792384,7.95 L10.9222537,7.95 C11.1031742,7.95 11.25,8.09664518 11.25,8.27765755 Z M5.25,11.2778675 L5.25,12.4221621 C5.25,12.6032811 5.10320377,12.75 4.92207616,12.75 L3.77774626,12.75 C3.59682583,12.75 3.45,12.6033107 3.45,12.4221621 L3.45,11.2778675 C3.45,11.0965412 3.59682583,10.95 3.77774626,10.95 L4.92207616,10.95 C5.10320377,10.95 5.25,11.0965412 5.25,11.2778675 Z M8.25,11.2778675 L8.25,12.4221621 C8.25,12.6032811 8.10315969,12.75 7.92236939,12.75 L6.7777786,12.75 C6.59684031,12.75 6.45,12.6033107 6.45,12.4221621 L6.45,11.2778675 C6.45,11.0965412 6.59684031,10.95 6.7777786,10.95 L7.92236939,10.95 C8.10315969,10.95 8.25,11.0965412 8.25,11.2778675 Z M11.25,11.2778675 L11.25,12.4221621 C11.25,12.6032811 11.1031742,12.75 10.9224017,12.75 L9.77792384,12.75 C9.59679623,12.75 9.45,12.6033107 9.45,12.4221621 L9.45,11.2778675 C9.45,11.0965412 9.59679623,10.95 9.77792384,10.95 L10.9224017,10.95 C11.1031742,10.95 11.25,11.0965412 11.25,11.2778675 Z M2.7605515,4.05 C2.47857481,4.05 2.25,3.81898996 2.25,3.53365578 L2.25,0.516531225 C2.25,0.231165878 2.47857481,0 2.7605515,0 L3.6894485,0 C3.97139439,0 4.2,0.231165878 4.2,0.516531225 L4.2,3.53365578 C4.2,3.81898996 3.97139439,4.05 3.6894485,4.05 L2.7605515,4.05 Z M11.0105772,4.05 C10.7286309,4.05 10.5,3.81898996 10.5,3.53365578 L10.5,0.516531225 C10.5,0.231165878 10.7286309,0 11.0105772,0 L11.9395769,0 C12.2213999,0 12.4500308,0.231165878 12.45,0.516531225 L12.45,3.53365578 C12.45,3.81898996 12.2213691,4.05 11.9395769,4.05 L11.0105772,4.05 Z" id="calendar-2"></path>
                        <path d="M13.3915574,1.65652103 L13.3915574,3.47287477 C13.3915574,4.2938482 12.7247558,4.95542544 11.9029256,4.95542544 L10.9638539,4.95542544 C10.1419622,4.95542544 9.46632204,4.2938482 9.46632204,3.47287477 L9.46632204,1.65 L5.23367796,1.65 L5.23367796,3.47287477 C5.23367796,4.2938482 4.55806863,4.95542544 3.73630004,4.95542544 L2.79704355,4.95542544 C1.97524417,4.95542544 1.30847338,4.2938482 1.30847338,3.47287477 L1.30847338,1.65652103 C0.590211175,1.67814502 0,2.27177433 0,3.00142254 L0,13.6461167 C0,14.3894837 0.603238011,15 1.3474923,15 L13.3525077,15 C14.0956533,15 14.7,14.3882225 14.7,13.6461167 L14.7,3.00142254 C14.7,2.27177433 14.1098196,1.67814502 13.3915574,1.65652103 Z M12.9553894,12.9832475 C12.9553894,13.3045007 12.6946062,13.5651267 12.3728465,13.5651267 L2.30150022,13.5651267 C1.97974043,13.5651267 1.71895733,13.3045007 1.71895733,12.9832475 L1.71895733,7.48487872 C1.71895733,7.16350254 1.97970963,6.90287654 2.30150022,6.90287654 L12.3728157,6.90287654 C12.6945755,6.90287654 12.9553586,7.16350254 12.9553586,7.48487872 L12.9553894,12.9832475 Z" id="calendar-1"></path>
                    </g>
                </g>
            </g>
        </g>
    </g>
</svg>