<?xml version="1.0" encoding="UTF-8"?>
<svg width="126px" height="72px" viewBox="0 0 126 72" version="1.1" xmlns="http://www.w3.org/2000/svg" xmlns:xlink="http://www.w3.org/1999/xlink">
    <!-- Generator: Sketch 49.3 (51167) - http://www.bohemiancoding.com/sketch -->
    <title>twitter-btn</title>
    <desc>Created with Sketch.</desc>
    <defs></defs>
    <g id="Page-1" stroke="none" stroke-width="1" fill="none" fill-rule="evenodd">
        <g id="Log-In" transform="translate(-297.000000, -1093.000000)">
            <g id="twitter-btn" transform="translate(297.000000, 1093.000000)">
                <rect id="twitter-bg" fill="#2AA3EF" x="0" y="0" width="126" height="72" rx="36"></rect>
                <path d="M79.2,26.4273505 C78.0406231,26.9410793 76.7966284,27.2894843 75.4895822,27.4450287 C76.8241652,26.6458435 77.8457551,25.3782238 78.3299398,23.8723978 C77.0780701,24.6124946 75.6962369,25.1498999 74.2238669,25.4412239 C73.0448282,24.1834351 71.3677593,23.4 69.5076092,23.4 C65.9389416,23.4 63.0454148,26.2935268 63.0454148,29.8602385 C63.0454148,30.3660923 63.1024958,30.8601592 63.2127459,31.3326086 C57.8430166,31.0629022 53.0815161,28.4902436 49.8947095,24.5809946 C49.3376424,25.5337167 49.0207375,26.6438362 49.0207375,27.8288455 C49.0207375,30.0708565 50.1624084,32.0490803 51.8946024,33.2064498 C50.8355934,33.171038 49.8395844,32.879714 48.9676197,32.3954779 L48.9676197,32.4761839 C48.9676197,35.6059097 51.1958366,38.2179433 54.1503561,38.8124296 C53.6090391,38.9580916 53.0382293,39.0387976 52.4477063,39.0387976 C52.0304335,39.0387976 51.6269035,38.9974667 51.2312484,38.9187165 C52.0540071,41.4874634 54.4397242,43.355437 57.2663392,43.4066503 C55.0558282,45.1388443 52.2685883,46.1683093 49.2412378,46.1683093 C48.719634,46.1683093 48.2058538,46.1368092 47.7,46.0797282 C50.5600708,47.9162533 53.9555396,48.9870492 57.6049132,48.9870492 C69.4919621,48.9870492 75.9896198,39.1411728 75.9896198,30.6023427 L75.9679506,29.7657898 C77.2375262,28.8602663 78.3358589,27.7225585 79.2,26.4273505 Z" id="twitter-icon" fill="#FFFFFF" fill-rule="nonzero"></path>
            </g>
        </g>
    </g>
</svg>