<?xml version="1.0" encoding="UTF-8"?>
<svg width="16px" height="13px" viewBox="0 0 16 13" version="1.1" xmlns="http://www.w3.org/2000/svg" xmlns:xlink="http://www.w3.org/1999/xlink">
    <!-- Generator: Sketch 49.3 (51167) - http://www.bohemiancoding.com/sketch -->
    <title>twitter-icon</title>
    <desc>Created with Sketch.</desc>
    <defs></defs>
    <g id="Page-1" stroke="none" stroke-width="1" fill="none" fill-rule="evenodd">
        <g id="Log-In" transform="translate(-332.000000, -542.000000)" fill="#FFFFFF" fill-rule="nonzero">
            <g id="Login-panel" transform="translate(150.000000, 110.000000)">
                <g id="social" transform="translate(90.000000, 422.000000)">
                    <g id="twitter-btn" transform="translate(72.600000, 0.500000)">
                        <path d="M35,11.4415955 C34.4479158,11.6862282 33.8555373,11.8521354 33.2331344,11.9262041 C33.8686501,11.5456398 34.3551215,10.9420113 34.5856856,10.2249513 C33.9895572,10.5773784 33.3315414,10.8332857 32.6304128,10.9720114 C32.0689658,10.3730643 31.2703616,10 30.3845758,10 C28.6852103,10 27.3073404,11.3778699 27.3073404,13.076304 C27.3073404,13.3171868 27.3345218,13.5524568 27.3870219,13.7774326 C24.8300079,13.6490011 22.5626267,12.4239255 21.0450997,10.5623784 C20.7798297,11.0160556 20.6289226,11.5446839 20.6289226,12.108974 C20.6289226,13.1765983 21.1725754,14.1186097 21.9974297,14.669738 C21.4931397,14.6528752 21.0188497,14.5141495 20.6036284,14.2835609 L20.6036284,14.3219924 C20.6036284,15.8123379 21.6646841,17.0561635 23.0715982,17.3392522 C22.8138281,17.408615 22.542014,17.4470465 22.2608125,17.4470465 C22.0621112,17.4470465 21.869954,17.4273651 21.6815469,17.389865 C22.0733367,18.6130778 23.2093925,19.5025891 24.5553996,19.5269764 C23.5027753,20.3518306 22.1755183,20.842052 20.7339228,20.842052 C20.48554,20.842052 20.2408827,20.827052 20,20.7998706 C21.3619385,21.6744063 22.9788284,22.1843091 24.7166254,22.1843091 C30.3771248,22.1843091 33.4712475,17.4957966 33.4712475,13.429687 L33.4609289,13.0313285 C34.0654887,12.6001268 34.5885042,12.0583612 35,11.4415955 Z" id="twitter-icon"></path>
                    </g>
                </g>
            </g>
        </g>
    </g>
</svg>