<?xml version="1.0" encoding="UTF-8"?>
<svg width="15px" height="12px" viewBox="0 0 15 12" version="1.1" xmlns="http://www.w3.org/2000/svg" xmlns:xlink="http://www.w3.org/1999/xlink">
    <!-- Generator: Sketch 49.3 (51167) - http://www.bohemiancoding.com/sketch -->
    <title>my-plants-icon</title>
    <desc>Created with Sketch.</desc>
    <defs></defs>
    <g id="Page-1" stroke="none" stroke-width="1" fill="none" fill-rule="evenodd">
        <g id="My-Plants" transform="translate(-526.000000, -62.000000)" fill="#34C197" fill-rule="nonzero">
            <g id="navbar" transform="translate(409.000000, 60.000000)">
                <g id="my-plants-btn" transform="translate(117.000000, 0.000000)">
                    <path d="M14.6989778,3.18679248 C14.8660885,3.18679248 15.0006481,3.32058332 14.9999977,3.48615545 C14.9999977,5.0851767 14.8660602,7.34418023 13.7052785,8.49857266 C13.2545971,8.94739211 12.5384729,9.19998313 11.7282023,9.19998313 C11.6890052,9.19998313 11.6497799,9.1993925 11.6099607,9.19818312 C10.8123881,9.17419246 10.0926157,8.91679206 9.67451372,8.51058205 C8.63137973,10.1185752 8.35083508,12.072197 8.35083508,13.6999902 C8.35083508,13.8655904 8.21568157,14 8.04916475,14 C7.88264793,14 7.74749442,13.8655904 7.74749442,13.6999902 C7.74749442,10.7821856 7.25275168,8.87477324 6.6331496,7.59798062 C6.17884828,7.85898103 5.58577351,8.00959064 4.98065116,8.00959064 C4.2391875,8.00959064 3.49285957,7.7935903 3.0090049,7.31239893 C1.84881705,6.15797837 1.71428571,3.89897485 1.71428571,2.29998172 C1.71428571,2.13438146 1.84943923,1.99997188 2.01598433,2 C3.62323364,2 5.89474026,2.13379084 7.05552201,3.28700201 C7.77286221,4.00039375 7.84345087,5.18721436 7.68598387,5.98700623 C7.66183215,6.1088158 7.56531008,6.20300657 7.44223243,6.2246066 C7.32096475,6.24741601 7.19607713,6.19040655 7.13151227,6.08420638 C6.40995824,4.89440453 5.59666158,4.34180366 5.15986602,4.04421257 L5.10616095,4.00821252 C5.04100219,3.96501245 4.98972926,3.92901239 4.95774378,3.90080297 C4.82683237,3.77120277 4.63497604,3.77120277 4.51732828,3.88761233 C4.39968053,4.00461251 4.39968053,4.19482218 4.51732828,4.31182237 C4.58913301,4.38323185 4.76226751,4.50082266 4.81959251,4.5398321 C5.12847443,4.74981367 5.66303641,5.12123301 6.20661993,5.82202472 C6.95775559,6.69980735 7.75292431,8.12962833 8.12939713,10.5584227 C8.64585945,8.61863847 9.78311164,6.73223552 12.0962475,5.65102446 C12.0998674,5.64922445 12.1047034,5.64981508 12.1089172,5.64801508 C12.1209648,5.64261507 12.1318246,5.63479631 12.1439005,5.62880567 C12.3562603,5.52921489 12.3767638,5.35222399 12.3128212,5.21781441 C12.2820517,5.15239555 12.2229451,5.10140485 12.1475204,5.07440481 C12.0618581,5.04439539 11.9677399,5.04740476 11.8881014,5.08520482 C10.9493233,5.52381488 10.1469147,6.12920645 9.50135093,6.88461701 C9.42171245,6.97759841 9.2937988,7.01300784 9.17736711,6.97520778 C9.06034154,6.93678897 8.97889309,6.83300755 8.97043716,6.71119799 C8.9052784,5.7889778 9.15624142,4.97419528 9.65881792,4.47438512 C10.8196279,3.32058332 13.0911346,3.18679248 14.6989778,3.18679248 Z M5.86405448,8.97958222 C5.93952383,8.97958222 6.00029269,9.0416994 5.99999894,9.11857217 C5.99999894,9.8609749 5.93951106,10.909798 5.41528705,11.4457659 C5.21175352,11.6541463 4.88834262,11.7714207 4.52241395,11.7714207 C4.50471205,11.7714207 4.48699738,11.7711465 4.46901449,11.770585 C4.10882042,11.7594465 3.78376194,11.6399392 3.59494168,11.4513417 C3.12384891,12.1979099 2.99715133,13.1049486 2.99715133,13.8607097 C2.99715133,13.9375955 2.93611426,14 2.86091311,14 C2.78571197,14 2.7246749,13.9375955 2.7246749,13.8607097 C2.7246749,12.5060147 2.50124269,11.6204304 2.2214224,11.0276339 C2.01625406,11.1488126 1.74841384,11.2187385 1.47513278,11.2187385 C1.14027823,11.2187385 0.8032269,11.1184526 0.584711889,10.8950424 C0.0607560879,10.3590614 0,9.31023832 0,8.56784866 C0,8.49096282 0.0610370704,8.42855837 0.136250987,8.42857143 C0.862105514,8.42857143 1.88794722,8.4906886 2.41217123,9.02610808 C2.73613132,9.35732567 2.76801007,9.90834952 2.69689594,10.2796815 C2.68598871,10.3362359 2.6423981,10.3799673 2.58681465,10.3899959 C2.5320486,10.400586 2.47564774,10.3741173 2.44648941,10.3248101 C2.1206263,9.7724021 1.75333104,9.51583741 1.55606852,9.37767012 L1.53181462,9.36095581 C1.50238809,9.34089864 1.47923257,9.32418433 1.46478751,9.31108709 C1.40566623,9.25091557 1.31902144,9.25091557 1.26589019,9.30496287 C1.21275895,9.35928438 1.21275895,9.44759601 1.26589019,9.50191753 C1.29831813,9.53507193 1.37650791,9.58966766 1.40239662,9.60777919 C1.54189168,9.70527063 1.78330676,9.87771532 2.0287961,10.2030829 C2.36801865,10.6106248 2.72712711,11.2744703 2.89714709,12.4021248 C3.13038814,11.5015107 3.6439859,10.6256808 4.68862789,10.1236899 C4.6902627,10.1228542 4.6924467,10.1231284 4.69434972,10.1222927 C4.69979056,10.1197856 4.70469498,10.1161554 4.7101486,10.1133741 C4.80605305,10.0671355 4.8153127,9.98496114 4.78643536,9.92255669 C4.77253949,9.89218365 4.74584615,9.86850939 4.71178341,9.85597366 C4.67309722,9.84204071 4.63059223,9.84343793 4.59462646,9.86098795 C4.17066213,10.0646283 3.80828406,10.345703 3.51673913,10.6964293 C3.48077336,10.7395993 3.42300591,10.7560394 3.37042386,10.7384893 C3.3175736,10.720652 3.28079043,10.6724678 3.27697162,10.6159134 C3.24754509,10.1877397 3.36088322,9.80944781 3.58785325,9.57739309 C4.11209004,9.0416994 5.13793174,8.97958222 5.86405448,8.97958222 Z M13.6366026,11.2966981 C13.6797279,11.2966981 13.714453,11.3301458 13.7142851,11.3715389 C13.7142851,11.7712942 13.6797206,12.3360451 13.380164,12.6246432 C13.2638592,12.736848 13.0790529,12.7999958 12.8699508,12.7999958 C12.8598355,12.7999958 12.8497128,12.7998481 12.8394369,12.7995458 C12.6336117,12.7935481 12.447864,12.729198 12.3399667,12.6276455 C12.0707708,13.0296438 11.9983722,13.5180492 11.9983722,13.9249975 C11.9983722,13.9663976 11.9634939,14 11.9205218,14 C11.8775497,14 11.8426714,13.9663976 11.8426714,13.9249975 C11.8426714,13.1955464 11.7149958,12.7186933 11.5550985,12.3994952 C11.4378595,12.4647453 11.2848079,12.5023977 11.1286473,12.5023977 C10.9373018,12.5023977 10.7447011,12.4483976 10.6198354,12.3280997 C10.3204321,12.0394946 10.2857143,11.4747437 10.2857143,11.0749954 C10.2857143,11.0335954 10.3205926,10.999993 10.363572,11 C10.778346,11 11.3645413,11.0334477 11.6640978,11.3217505 C11.8492179,11.5000984 11.8674343,11.7968036 11.8267977,11.9967516 C11.820565,12.0272039 11.7956561,12.0507516 11.7638941,12.0561517 C11.7325992,12.061854 11.7003701,12.0476016 11.6837082,12.0210516 C11.4975007,11.7236011 11.2876177,11.5854509 11.1748963,11.5110531 L11.1610369,11.5020531 C11.1442218,11.4912531 11.13099,11.4822531 11.1227357,11.4752007 C11.0889521,11.4428007 11.0394408,11.4428007 11.0090801,11.4719031 C10.9787194,11.5011531 10.9787194,11.5487055 11.0090801,11.5779556 C11.0276104,11.595808 11.0722902,11.6252057 11.0870838,11.634958 C11.1667952,11.6874534 11.3047467,11.7803083 11.4450263,11.9555062 C11.6388678,12.1749518 11.8440726,12.5324071 11.9412269,13.1396057 C12.0745075,12.6546596 12.3679919,12.1830589 12.9649302,11.9127561 C12.9658644,11.9123061 12.9671124,11.9124538 12.9681998,11.9120038 C12.9713089,11.9106538 12.9741114,11.9086991 12.9772278,11.9072014 C13.0320303,11.8823037 13.0373215,11.838056 13.0208202,11.8044536 C13.0128797,11.7880989 12.9976264,11.7753512 12.9781619,11.7686012 C12.9560556,11.7610988 12.931767,11.7618512 12.9112151,11.7713012 C12.6689498,11.8809537 12.4618766,12.0323016 12.2952795,12.2211543 C12.2747276,12.2443996 12.2417177,12.253252 12.2116708,12.2438019 C12.1814706,12.2341972 12.1604517,12.2082519 12.1582695,12.1777995 C12.1414543,11.9472444 12.206219,11.7435488 12.3359161,11.6185963 C12.63548,11.3301458 13.2216753,11.2966981 13.6366026,11.2966981 Z" id="my-plants-icon"></path>
                </g>
            </g>
        </g>
    </g>
</svg>